<?xml version="1.0" encoding="utf-8"?>
<!-- Generator: Adobe Illustrator 19.2.0, SVG Export Plug-In . SVG Version: 6.00 Build 0)  -->
<svg version="1.1" id="Capa_1" xmlns="http://www.w3.org/2000/svg" xmlns:xlink="http://www.w3.org/1999/xlink" x="0px" y="0px"
	 viewBox="0 0 205.3 216" style="enable-background:new 0 0 205.3 216;" xml:space="preserve">
<style type="text/css">
	.st0{fill:#0076BD;}
	.st1{fill:#00A46A;}
	.st2{fill:#FFFFFF;}
	.st3{fill:#F4C800;}
	.st4{fill:none;}
</style>
<g>
	<rect x="30" y="30.1" class="st0" width="144.1" height="155"/>
	<path class="st1" d="M30,140.1C44.2,137,80.4,87,107.6,87.3c31.2,0.3,55.7,51.3,66.7,55.4v43.1L30,186L30,140.1z"/>
	<path class="st2" d="M174.1,138.3c-8.9-34.4-35.5-74.4-79-85.7c-3,5.1-7.6,11-11.5,16.2c-13.3,17.8-30.4,35-53.7,66.3v6.1
		c30-7.4,56.2-23.1,78.9-50.2c15.6,23.8,36.6,40.9,65.3,52.8V138.3z"/>
	<path class="st3" d="M113.4,154.5c-6.7-8-4.7-17.7,0-22.3c3.1-3,16.5-2.3,23.4,5.3c6.6,7.3,4.8,17.5-2.5,22.6
		C129.3,163.6,122.1,164.8,113.4,154.5"/>
</g>
<rect x="-0.3" class="st4" width="205.3" height="216"/>
</svg>
